<svg xmlns="http://www.w3.org/2000/svg" xmlns:xlink="http://www.w3.org/1999/xlink" width="200" height="199.987" viewBox="0 0 200 199.987"> <defs> <radialGradient id="radial-gradient" cx="0.5" cy="0.5" r="0.817" gradientTransform="translate(0.043 -0.04) rotate(4.754)" gradientUnits="objectBoundingBox"> <stop offset="0" stop-color="#570457"/> <stop offset="1" stop-color="#110111"/> </radialGradient> <radialGradient id="radial-gradient-2" cx="0.5" cy="0.5" r="0.5" gradientUnits="objectBoundingBox"> <stop offset="0" stop-color="#fef2a9"/> <stop offset="0.594" stop-color="#fbe76b"/> <stop offset="1" stop-color="#f9e040"/> </radialGradient> </defs> <g id="Group_174595" data-name="Group 174595" transform="translate(-119 -235)"> <path id="Path_38751" data-name="Path 38751" d="M285.56,260.233l-100-50V110.243l100-50,100,50v99.994Z" transform="translate(-66.56 174.754)" fill="url(#radial-gradient)"/> <g id="logo" transform="translate(147.571 263.571)"> <path id="Path_39821" data-name="Path 39821" d="M22.742,108.166,35.759,34.635A28,28,0,0,0,33.551,19.6h31L95,76.437l7.515-41.8A29.491,29.491,0,0,0,100.461,19.6h26.964c-3.487,4.223-6.586,10.266-7.322,15.032l-13.026,73.531a26.233,26.233,0,0,0,2.208,15.032H86.549L49.86,52.8l-9.684,55.365A26.217,26.217,0,0,0,42.346,123.2H15.416A37.464,37.464,0,0,0,22.742,108.166ZM20.921,20.921a71.407,71.407,0,0,1,95.846-4.691h-9.224a69.4,69.4,0,0,0-10.5-5.578,66.407,66.407,0,0,0-51.293,0A70.892,70.892,0,0,0,35.293,16.23a6.346,6.346,0,0,0-3.532.543c-.911.509-1.915,2.086-1.554,3.185A71.023,71.023,0,0,0,24.784,24.8a65.821,65.821,0,0,0-6.26,85.961l-.155.5-2.712,4.766a71.4,71.4,0,0,1,5.265-95.11c20.557-20.547-13.405,13.376,0,0C41.478.374,7.515,34.3,20.921,20.921Zm116.3,22.7a71.329,71.329,0,0,1-15.3,78.261,69.693,69.693,0,0,1-22.7,15.3,71.131,71.131,0,0,1-55.594,0,69.372,69.372,0,0,1-17.588-10.615h9.259a67.619,67.619,0,0,0,10.46,5.578,66.112,66.112,0,0,0,61.793-5.578,6.217,6.217,0,0,0,3.645-.621,3.433,3.433,0,0,0,1.434-3.1,63.15,63.15,0,0,0,5.385-4.842,66.09,66.09,0,0,0,14.14-72.253,64.7,64.7,0,0,0-7.9-13.788l.155-.466.388-.971.388-.93.426-.891,1.24-2.324a71.378,71.378,0,0,1,10.375,17.236Z" transform="translate(0 0.001)" fill="url(#radial-gradient-2)"/> </g> </g> </svg>
